<?xml version="1.0" standalone="no"?>
<svg xmlns="http://www.w3.org/2000/svg" width="2000" height="2000" viewBox="0 0 2000 2000"><defs><clipPath id="clip-path-dot-color"><path d="M 101 783v 62h 31a 31 31, 0, 0, 0, 0 -62" transform="rotate(180,132,814)"/><circle cx="132" cy="1062" r="31" transform="rotate(0,132,1062)"/><path d="M 101 1217v 62h 31a 31 31, 0, 0, 0, 0 -62" transform="rotate(180,132,1248)"/><path d="M 101 1341v 62h 31a 31 31, 0, 0, 0, 0 -62" transform="rotate(180,132,1372)"/><path d="M 163 597v 62h 31a 31 31, 0, 0, 0, 0 -62" transform="rotate(180,194,628)"/><rect x="163" y="783" width="62" height="62" transform="rotate(0,194,814)"/><path d="M 163 1217v 62h 62a 62 62, 0, 0, 0, -62 -62" transform="rotate(0,194,1248)"/><rect x="163" y="1279" width="62" height="62" transform="rotate(0,194,1310)"/><rect x="163" y="1341" width="62" height="62" transform="rotate(0,194,1372)"/><path d="M 225 597v 62h 62a 62 62, 0, 0, 0, -62 -62" transform="rotate(0,256,628)"/><path d="M 225 659v 62h 31a 31 31, 0, 0, 0, 0 -62" transform="rotate(90,256,690)"/><rect x="225" y="783" width="62" height="62" transform="rotate(0,256,814)"/><path d="M 225 969v 62h 62a 62 62, 0, 0, 0, -62 -62" transform="rotate(-90,256,1000)"/><rect x="225" y="1031" width="62" height="62" transform="rotate(0,256,1062)"/><path d="M 225 1093v 62h 31a 31 31, 0, 0, 0, 0 -62" transform="rotate(90,256,1124)"/><path d="M 225 1341v 62h 31a 31 31, 0, 0, 0, 0 -62" transform="rotate(0,256,1372)"/><path d="M 287 721v 62h 62a 62 62, 0, 0, 0, -62 -62" transform="rotate(-90,318,752)"/><path d="M 287 783v 62h 62a 62 62, 0, 0, 0, -62 -62" transform="rotate(90,318,814)"/><rect x="287" y="969" width="62" height="62" transform="rotate(0,318,1000)"/><path d="M 287 1155v 62h 31a 31 31, 0, 0, 0, 0 -62" transform="rotate(180,318,1186)"/><path d="M 287 1279v 62h 31a 31 31, 0, 0, 0, 0 -62" transform="rotate(180,318,1310)"/><path d="M 349 659v 62h 31a 31 31, 0, 0, 0, 0 -62" transform="rotate(-90,380,690)"/><rect x="349" y="721" width="62" height="62" transform="rotate(0,380,752)"/><path d="M 349 845v 62h 31a 31 31, 0, 0, 0, 0 -62" transform="rotate(-90,380,876)"/><rect x="349" y="907" width="62" height="62" transform="rotate(0,380,938)"/><rect x="349" y="969" width="62" height="62" transform="rotate(0,380,1000)"/><path d="M 349 1155v 62h 62a 62 62, 0, 0, 0, -62 -62" transform="rotate(0,380,1186)"/><rect x="349" y="1217" width="62" height="62" transform="rotate(0,380,1248)"/><rect x="349" y="1279" width="62" height="62" transform="rotate(0,380,1310)"/><rect x="411" y="721" width="62" height="62" transform="rotate(0,442,752)"/><path d="M 411 783v 62h 31a 31 31, 0, 0, 0, 0 -62" transform="rotate(90,442,814)"/><rect x="411" y="969" width="62" height="62" transform="rotate(0,442,1000)"/><path d="M 411 1093v 62h 31a 31 31, 0, 0, 0, 0 -62" transform="rotate(180,442,1124)"/><path d="M 411 1279v 62h 31a 31 31, 0, 0, 0, 0 -62" transform="rotate(0,442,1310)"/><circle cx="504" cy="628" r="31" transform="rotate(0,504,628)"/><path d="M 473 721v 62h 31a 31 31, 0, 0, 0, 0 -62" transform="rotate(0,504,752)"/><circle cx="504" cy="876" r="31" transform="rotate(0,504,876)"/><path d="M 473 969v 62h 31a 31 31, 0, 0, 0, 0 -62" transform="rotate(0,504,1000)"/><rect x="473" y="1093" width="62" height="62" transform="rotate(0,504,1124)"/><path d="M 473 1217v 62h 31a 31 31, 0, 0, 0, 0 -62" transform="rotate(180,504,1248)"/><path d="M 473 1341v 62h 31a 31 31, 0, 0, 0, 0 -62" transform="rotate(180,504,1372)"/><path d="M 535 659v 62h 31a 31 31, 0, 0, 0, 0 -62" transform="rotate(180,566,690)"/><path d="M 535 783v 62h 31a 31 31, 0, 0, 0, 0 -62" transform="rotate(180,566,814)"/><path d="M 535 907v 62h 31a 31 31, 0, 0, 0, 0 -62" transform="rotate(180,566,938)"/><path d="M 535 1031v 62h 62a 62 62, 0, 0, 0, -62 -62" transform="rotate(-90,566,1062)"/><rect x="535" y="1093" width="62" height="62" transform="rotate(0,566,1124)"/><rect x="535" y="1155" width="62" height="62" transform="rotate(0,566,1186)"/><rect x="535" y="1217" width="62" height="62" transform="rotate(0,566,1248)"/><rect x="535" y="1279" width="62" height="62" transform="rotate(0,566,1310)"/><path d="M 535 1341v 62h 62a 62 62, 0, 0, 0, -62 -62" transform="rotate(90,566,1372)"/><path d="M 597 163v 62h 62a 62 62, 0, 0, 0, -62 -62" transform="rotate(-90,628,194)"/><rect x="597" y="225" width="62" height="62" transform="rotate(0,628,256)"/><path d="M 597 287v 62h 31a 31 31, 0, 0, 0, 0 -62" transform="rotate(90,628,318)"/><path d="M 597 411v 62h 62a 62 62, 0, 0, 0, -62 -62" transform="rotate(-90,628,442)"/><path d="M 597 473v 62h 31a 31 31, 0, 0, 0, 0 -62" transform="rotate(90,628,504)"/><path d="M 597 659v 62h 62a 62 62, 0, 0, 0, -62 -62" transform="rotate(0,628,690)"/><rect x="597" y="721" width="62" height="62" transform="rotate(0,628,752)"/><path d="M 597 783v 62h 62a 62 62, 0, 0, 0, -62 -62" transform="rotate(90,628,814)"/><rect x="597" y="907" width="62" height="62" transform="rotate(0,628,938)"/><rect x="597" y="969" width="62" height="62" transform="rotate(0,628,1000)"/><rect x="597" y="1031" width="62" height="62" transform="rotate(0,628,1062)"/><path d="M 597 1093v 62h 62a 62 62, 0, 0, 0, -62 -62" transform="rotate(90,628,1124)"/><path d="M 597 1279v 62h 31a 31 31, 0, 0, 0, 0 -62" transform="rotate(0,628,1310)"/><path d="M 597 1713v 62h 62a 62 62, 0, 0, 0, -62 -62" transform="rotate(-90,628,1744)"/><path d="M 597 1775v 62h 31a 31 31, 0, 0, 0, 0 -62" transform="rotate(90,628,1806)"/><path d="M 659 163v 62h 62a 62 62, 0, 0, 0, -62 -62" transform="rotate(0,690,194)"/><rect x="659" y="225" width="62" height="62" transform="rotate(0,690,256)"/><path d="M 659 349v 62h 62a 62 62, 0, 0, 0, -62 -62" transform="rotate(-90,690,380)"/><path d="M 659 411v 62h 62a 62 62, 0, 0, 0, -62 -62" transform="rotate(90,690,442)"/><path d="M 659 597v 62h 31a 31 31, 0, 0, 0, 0 -62" transform="rotate(180,690,628)"/><rect x="659" y="721" width="62" height="62" transform="rotate(0,690,752)"/><rect x="659" y="907" width="62" height="62" transform="rotate(0,690,938)"/><path d="M 659 1155v 62h 31a 31 31, 0, 0, 0, 0 -62" transform="rotate(180,690,1186)"/><circle cx="690" cy="1434" r="31" transform="rotate(0,690,1434)"/><path d="M 659 1527v 62h 62a 62 62, 0, 0, 0, -62 -62" transform="rotate(-90,690,1558)"/><rect x="659" y="1589" width="62" height="62" transform="rotate(0,690,1620)"/><rect x="659" y="1651" width="62" height="62" transform="rotate(0,690,1682)"/><path d="M 659 1713v 62h 62a 62 62, 0, 0, 0, -62 -62" transform="rotate(90,690,1744)"/><circle cx="690" cy="1868" r="31" transform="rotate(0,690,1868)"/><path d="M 721 101v 62h 31a 31 31, 0, 0, 0, 0 -62" transform="rotate(180,752,132)"/><path d="M 721 225v 62h 62a 62 62, 0, 0, 0, -62 -62" transform="rotate(0,752,256)"/><rect x="721" y="287" width="62" height="62" transform="rotate(0,752,318)"/><path d="M 721 349v 62h 62a 62 62, 0, 0, 0, -62 -62" transform="rotate(90,752,380)"/><circle cx="752" cy="504" r="31" transform="rotate(0,752,504)"/><path d="M 721 597v 62h 62a 62 62, 0, 0, 0, -62 -62" transform="rotate(0,752,628)"/><rect x="721" y="659" width="62" height="62" transform="rotate(0,752,690)"/><rect x="721" y="721" width="62" height="62" transform="rotate(0,752,752)"/><path d="M 721 783v 62h 62a 62 62, 0, 0, 0, -62 -62" transform="rotate(180,752,814)"/><path d="M 721 907v 62h 31a 31 31, 0, 0, 0, 0 -62" transform="rotate(0,752,938)"/><path d="M 721 1155v 62h 31a 31 31, 0, 0, 0, 0 -62" transform="rotate(0,752,1186)"/><path d="M 721 1465v 62h 31a 31 31, 0, 0, 0, 0 -62" transform="rotate(-90,752,1496)"/><rect x="721" y="1527" width="62" height="62" transform="rotate(0,752,1558)"/><circle cx="752" cy="1806" r="31" transform="rotate(0,752,1806)"/><path d="M 783 101v 62h 31a 31 31, 0, 0, 0, 0 -62" transform="rotate(0,814,132)"/><circle cx="814" cy="442" r="31" transform="rotate(0,814,442)"/><path d="M 783 535v 62h 31a 31 31, 0, 0, 0, 0 -62" transform="rotate(180,814,566)"/><path d="M 783 721v 62h 62a 62 62, 0, 0, 0, -62 -62" transform="rotate(0,814,752)"/><rect x="783" y="783" width="62" height="62" transform="rotate(0,814,814)"/><path d="M 783 845v 62h 31a 31 31, 0, 0, 0, 0 -62" transform="rotate(90,814,876)"/><path d="M 783 1031v 62h 31a 31 31, 0, 0, 0, 0 -62" transform="rotate(180,814,1062)"/><path d="M 783 1217v 62h 31a 31 31, 0, 0, 0, 0 -62" transform="rotate(180,814,1248)"/><rect x="783" y="1527" width="62" height="62" transform="rotate(0,814,1558)"/><path d="M 783 1651v 62h 31a 31 31, 0, 0, 0, 0 -62" transform="rotate(180,814,1682)"/><path d="M 783 1837v 62h 31a 31 31, 0, 0, 0, 0 -62" transform="rotate(180,814,1868)"/><path d="M 845 225v 62h 62a 62 62, 0, 0, 0, -62 -62" transform="rotate(-90,876,256)"/><rect x="845" y="287" width="62" height="62" transform="rotate(0,876,318)"/><path d="M 845 349v 62h 62a 62 62, 0, 0, 0, -62 -62" transform="rotate(180,876,380)"/><path d="M 845 473v 62h 31a 31 31, 0, 0, 0, 0 -62" transform="rotate(-90,876,504)"/><path d="M 845 535v 62h 62a 62 62, 0, 0, 0, -62 -62" transform="rotate(90,876,566)"/><circle cx="876" cy="690" r="31" transform="rotate(0,876,690)"/><path d="M 845 783v 62h 31a 31 31, 0, 0, 0, 0 -62" transform="rotate(0,876,814)"/><path d="M 845 969v 62h 31a 31 31, 0, 0, 0, 0 -62" transform="rotate(-90,876,1000)"/><rect x="845" y="1031" width="62" height="62" transform="rotate(0,876,1062)"/><rect x="845" y="1093" width="62" height="62" transform="rotate(0,876,1124)"/><rect x="845" y="1155" width="62" height="62" transform="rotate(0,876,1186)"/><path d="M 845 1217v 62h 62a 62 62, 0, 0, 0, -62 -62" transform="rotate(90,876,1248)"/><path d="M 845 1341v 62h 31a 31 31, 0, 0, 0, 0 -62" transform="rotate(-90,876,1372)"/><path d="M 845 1403v 62h 31a 31 31, 0, 0, 0, 0 -62" transform="rotate(90,876,1434)"/><rect x="845" y="1527" width="62" height="62" transform="rotate(0,876,1558)"/><rect x="845" y="1651" width="62" height="62" transform="rotate(0,876,1682)"/><rect x="845" y="1713" width="62" height="62" transform="rotate(0,876,1744)"/><rect x="845" y="1775" width="62" height="62" transform="rotate(0,876,1806)"/><rect x="845" y="1837" width="62" height="62" transform="rotate(0,876,1868)"/><path d="M 907 101v 62h 62a 62 62, 0, 0, 0, -62 -62" transform="rotate(-90,938,132)"/><rect x="907" y="163" width="62" height="62" transform="rotate(0,938,194)"/><path d="M 907 225v 62h 62a 62 62, 0, 0, 0, -62 -62" transform="rotate(90,938,256)"/><path d="M 907 349v 62h 31a 31 31, 0, 0, 0, 0 -62" transform="rotate(0,938,380)"/><circle cx="938" cy="628" r="31" transform="rotate(0,938,628)"/><circle cx="938" cy="876" r="31" transform="rotate(0,938,876)"/><rect x="907" y="1031" width="62" height="62" transform="rotate(0,938,1062)"/><path d="M 907 1279v 62h 31a 31 31, 0, 0, 0, 0 -62" transform="rotate(180,938,1310)"/><path d="M 907 1465v 62h 31a 31 31, 0, 0, 0, 0 -62" transform="rotate(-90,938,1496)"/><rect x="907" y="1527" width="62" height="62" transform="rotate(0,938,1558)"/><rect x="907" y="1651" width="62" height="62" transform="rotate(0,938,1682)"/><path d="M 907 1713v 62h 62a 62 62, 0, 0, 0, -62 -62" transform="rotate(90,938,1744)"/><rect x="907" y="1837" width="62" height="62" transform="rotate(0,938,1868)"/><path d="M 969 101v 62h 62a 62 62, 0, 0, 0, -62 -62" transform="rotate(0,1000,132)"/><rect x="969" y="163" width="62" height="62" transform="rotate(0,1000,194)"/><path d="M 969 411v 62h 62a 62 62, 0, 0, 0, -62 -62" transform="rotate(-90,1000,442)"/><path d="M 969 473v 62h 31a 31 31, 0, 0, 0, 0 -62" transform="rotate(90,1000,504)"/><path d="M 969 721v 62h 31a 31 31, 0, 0, 0, 0 -62" transform="rotate(180,1000,752)"/><path d="M 969 969v 62h 31a 31 31, 0, 0, 0, 0 -62" transform="rotate(-90,1000,1000)"/><rect x="969" y="1031" width="62" height="62" transform="rotate(0,1000,1062)"/><rect x="969" y="1093" width="62" height="62" transform="rotate(0,1000,1124)"/><rect x="969" y="1155" width="62" height="62" transform="rotate(0,1000,1186)"/><rect x="969" y="1217" width="62" height="62" transform="rotate(0,1000,1248)"/><rect x="969" y="1279" width="62" height="62" transform="rotate(0,1000,1310)"/><rect x="969" y="1341" width="62" height="62" transform="rotate(0,1000,1372)"/><path d="M 969 1403v 62h 31a 31 31, 0, 0, 0, 0 -62" transform="rotate(90,1000,1434)"/><path d="M 969 1527v 62h 62a 62 62, 0, 0, 0, -62 -62" transform="rotate(0,1000,1558)"/><rect x="969" y="1589" width="62" height="62" transform="rotate(0,1000,1620)"/><rect x="969" y="1651" width="62" height="62" transform="rotate(0,1000,1682)"/><path d="M 969 1775v 62h 31a 31 31, 0, 0, 0, 0 -62" transform="rotate(-90,1000,1806)"/><rect x="969" y="1837" width="62" height="62" transform="rotate(0,1000,1868)"/><rect x="1031" y="163" width="62" height="62" transform="rotate(0,1062,194)"/><path d="M 1031 349v 62h 62a 62 62, 0, 0, 0, -62 -62" transform="rotate(-90,1062,380)"/><rect x="1031" y="411" width="62" height="62" transform="rotate(0,1062,442)"/><circle cx="1062" cy="566" r="31" transform="rotate(0,1062,566)"/><rect x="1031" y="721" width="62" height="62" transform="rotate(0,1062,752)"/><rect x="1031" y="1093" width="62" height="62" transform="rotate(0,1062,1124)"/><rect x="1031" y="1155" width="62" height="62" transform="rotate(0,1062,1186)"/><rect x="1031" y="1217" width="62" height="62" transform="rotate(0,1062,1248)"/><path d="M 1031 1589v 62h 62a 62 62, 0, 0, 0, -62 -62" transform="rotate(0,1062,1620)"/><rect x="1031" y="1651" width="62" height="62" transform="rotate(0,1062,1682)"/><path d="M 1031 1837v 62h 31a 31 31, 0, 0, 0, 0 -62" transform="rotate(0,1062,1868)"/><path d="M 1093 101v 62h 31a 31 31, 0, 0, 0, 0 -62" transform="rotate(-90,1124,132)"/><rect x="1093" y="163" width="62" height="62" transform="rotate(0,1124,194)"/><path d="M 1093 225v 62h 31a 31 31, 0, 0, 0, 0 -62" transform="rotate(90,1124,256)"/><rect x="1093" y="349" width="62" height="62" transform="rotate(0,1124,380)"/><rect x="1093" y="411" width="62" height="62" transform="rotate(0,1124,442)"/><path d="M 1093 473v 62h 31a 31 31, 0, 0, 0, 0 -62" transform="rotate(90,1124,504)"/><path d="M 1093 597v 62h 31a 31 31, 0, 0, 0, 0 -62" transform="rotate(-90,1124,628)"/><rect x="1093" y="659" width="62" height="62" transform="rotate(0,1124,690)"/><path d="M 1093 721v 62h 62a 62 62, 0, 0, 0, -62 -62" transform="rotate(90,1124,752)"/><path d="M 1093 845v 62h 62a 62 62, 0, 0, 0, -62 -62" transform="rotate(-90,1124,876)"/><rect x="1093" y="907" width="62" height="62" transform="rotate(0,1124,938)"/><path d="M 1093 969v 62h 31a 31 31, 0, 0, 0, 0 -62" transform="rotate(90,1124,1000)"/><rect x="1093" y="1093" width="62" height="62" transform="rotate(0,1124,1124)"/><rect x="1093" y="1155" width="62" height="62" transform="rotate(0,1124,1186)"/><path d="M 1093 1217v 62h 62a 62 62, 0, 0, 0, -62 -62" transform="rotate(90,1124,1248)"/><path d="M 1093 1651v 62h 31a 31 31, 0, 0, 0, 0 -62" transform="rotate(0,1124,1682)"/><circle cx="1124" cy="1806" r="31" transform="rotate(0,1124,1806)"/><path d="M 1155 163v 62h 31a 31 31, 0, 0, 0, 0 -62" transform="rotate(0,1186,194)"/><path d="M 1155 349v 62h 31a 31 31, 0, 0, 0, 0 -62" transform="rotate(0,1186,380)"/><circle cx="1186" cy="566" r="31" transform="rotate(0,1186,566)"/><path d="M 1155 783v 62h 62a 62 62, 0, 0, 0, -62 -62" transform="rotate(-90,1186,814)"/><rect x="1155" y="845" width="62" height="62" transform="rotate(0,1186,876)"/><rect x="1155" y="1093" width="62" height="62" transform="rotate(0,1186,1124)"/><rect x="1155" y="1155" width="62" height="62" transform="rotate(0,1186,1186)"/><path d="M 1155 1341v 62h 31a 31 31, 0, 0, 0, 0 -62" transform="rotate(-90,1186,1372)"/><path d="M 1155 1403v 62h 31a 31 31, 0, 0, 0, 0 -62" transform="rotate(90,1186,1434)"/><path d="M 1155 1527v 62h 31a 31 31, 0, 0, 0, 0 -62" transform="rotate(180,1186,1558)"/><circle cx="1248" cy="132" r="31" transform="rotate(0,1248,132)"/><path d="M 1217 287v 62h 31a 31 31, 0, 0, 0, 0 -62" transform="rotate(180,1248,318)"/><circle cx="1248" cy="504" r="31" transform="rotate(0,1248,504)"/><path d="M 1217 597v 62h 62a 62 62, 0, 0, 0, -62 -62" transform="rotate(-90,1248,628)"/><rect x="1217" y="659" width="62" height="62" transform="rotate(0,1248,690)"/><rect x="1217" y="721" width="62" height="62" transform="rotate(0,1248,752)"/><rect x="1217" y="783" width="62" height="62" transform="rotate(0,1248,814)"/><rect x="1217" y="845" width="62" height="62" transform="rotate(0,1248,876)"/><rect x="1217" y="907" width="62" height="62" transform="rotate(0,1248,938)"/><rect x="1217" y="969" width="62" height="62" transform="rotate(0,1248,1000)"/><rect x="1217" y="1031" width="62" height="62" transform="rotate(0,1248,1062)"/><rect x="1217" y="1093" width="62" height="62" transform="rotate(0,1248,1124)"/><rect x="1217" y="1155" width="62" height="62" transform="rotate(0,1248,1186)"/><path d="M 1217 1465v 62h 62a 62 62, 0, 0, 0, -62 -62" transform="rotate(-90,1248,1496)"/><path d="M 1217 1527v 62h 62a 62 62, 0, 0, 0, -62 -62" transform="rotate(90,1248,1558)"/><circle cx="1248" cy="1682" r="31" transform="rotate(0,1248,1682)"/><path d="M 1279 225v 62h 31a 31 31, 0, 0, 0, 0 -62" transform="rotate(-90,1310,256)"/><path d="M 1279 287v 62h 62a 62 62, 0, 0, 0, -62 -62" transform="rotate(90,1310,318)"/><path d="M 1279 597v 62h 62a 62 62, 0, 0, 0, -62 -62" transform="rotate(0,1310,628)"/><path d="M 1279 659v 62h 62a 62 62, 0, 0, 0, -62 -62" transform="rotate(90,1310,690)"/><rect x="1279" y="783" width="62" height="62" transform="rotate(0,1310,814)"/><rect x="1279" y="907" width="62" height="62" transform="rotate(0,1310,938)"/><rect x="1279" y="1155" width="62" height="62" transform="rotate(0,1310,1186)"/><path d="M 1279 1403v 62h 62a 62 62, 0, 0, 0, -62 -62" transform="rotate(-90,1310,1434)"/><rect x="1279" y="1465" width="62" height="62" transform="rotate(0,1310,1496)"/><path d="M 1279 1589v 62h 31a 31 31, 0, 0, 0, 0 -62" transform="rotate(180,1310,1620)"/><path d="M 1279 1713v 62h 31a 31 31, 0, 0, 0, 0 -62" transform="rotate(180,1310,1744)"/><circle cx="1310" cy="1868" r="31" transform="rotate(0,1310,1868)"/><circle cx="1372" cy="194" r="31" transform="rotate(0,1372,194)"/><path d="M 1341 473v 62h 31a 31 31, 0, 0, 0, 0 -62" transform="rotate(-90,1372,504)"/><path d="M 1341 535v 62h 31a 31 31, 0, 0, 0, 0 -62" transform="rotate(90,1372,566)"/><path d="M 1341 721v 62h 31a 31 31, 0, 0, 0, 0 -62" transform="rotate(-90,1372,752)"/><rect x="1341" y="783" width="62" height="62" transform="rotate(0,1372,814)"/><path d="M 1341 907v 62h 62a 62 62, 0, 0, 0, -62 -62" transform="rotate(0,1372,938)"/><path d="M 1341 969v 62h 62a 62 62, 0, 0, 0, -62 -62" transform="rotate(180,1372,1000)"/><path d="M 1341 1093v 62h 31a 31 31, 0, 0, 0, 0 -62" transform="rotate(-90,1372,1124)"/><rect x="1341" y="1155" width="62" height="62" transform="rotate(0,1372,1186)"/><rect x="1341" y="1217" width="62" height="62" transform="rotate(0,1372,1248)"/><rect x="1341" y="1279" width="62" height="62" transform="rotate(0,1372,1310)"/><rect x="1341" y="1341" width="62" height="62" transform="rotate(0,1372,1372)"/><rect x="1341" y="1403" width="62" height="62" transform="rotate(0,1372,1434)"/><rect x="1341" y="1465" width="62" height="62" transform="rotate(0,1372,1496)"/><rect x="1341" y="1527" width="62" height="62" transform="rotate(0,1372,1558)"/><rect x="1341" y="1589" width="62" height="62" transform="rotate(0,1372,1620)"/><path d="M 1341 1713v 62h 31a 31 31, 0, 0, 0, 0 -62" transform="rotate(0,1372,1744)"/><path d="M 1403 597v 62h 31a 31 31, 0, 0, 0, 0 -62" transform="rotate(-90,1434,628)"/><path d="M 1403 659v 62h 31a 31 31, 0, 0, 0, 0 -62" transform="rotate(90,1434,690)"/><rect x="1403" y="783" width="62" height="62" transform="rotate(0,1434,814)"/><path d="M 1403 969v 62h 31a 31 31, 0, 0, 0, 0 -62" transform="rotate(0,1434,1000)"/><path d="M 1403 1217v 62h 62a 62 62, 0, 0, 0, -62 -62" transform="rotate(0,1434,1248)"/><rect x="1403" y="1279" width="62" height="62" transform="rotate(0,1434,1310)"/><rect x="1403" y="1341" width="62" height="62" transform="rotate(0,1434,1372)"/><rect x="1403" y="1589" width="62" height="62" transform="rotate(0,1434,1620)"/><path d="M 1403 1651v 62h 31a 31 31, 0, 0, 0, 0 -62" transform="rotate(90,1434,1682)"/><path d="M 1465 721v 62h 31a 31 31, 0, 0, 0, 0 -62" transform="rotate(-90,1496,752)"/><rect x="1465" y="783" width="62" height="62" transform="rotate(0,1496,814)"/><path d="M 1465 845v 62h 31a 31 31, 0, 0, 0, 0 -62" transform="rotate(90,1496,876)"/><path d="M 1465 1093v 62h 31a 31 31, 0, 0, 0, 0 -62" transform="rotate(-90,1496,1124)"/><path d="M 1465 1155v 62h 31a 31 31, 0, 0, 0, 0 -62" transform="rotate(90,1496,1186)"/><path d="M 1465 1279v 62h 62a 62 62, 0, 0, 0, -62 -62" transform="rotate(0,1496,1310)"/><rect x="1465" y="1341" width="62" height="62" transform="rotate(0,1496,1372)"/><circle cx="1496" cy="1496" r="31" transform="rotate(0,1496,1496)"/><rect x="1465" y="1589" width="62" height="62" transform="rotate(0,1496,1620)"/><path d="M 1465 1713v 62h 31a 31 31, 0, 0, 0, 0 -62" transform="rotate(-90,1496,1744)"/><path d="M 1465 1775v 62h 62a 62 62, 0, 0, 0, -62 -62" transform="rotate(180,1496,1806)"/><circle cx="1558" cy="628" r="31" transform="rotate(0,1558,628)"/><rect x="1527" y="783" width="62" height="62" transform="rotate(0,1558,814)"/><path d="M 1527 969v 62h 62a 62 62, 0, 0, 0, -62 -62" transform="rotate(-90,1558,1000)"/><path d="M 1527 1031v 62h 31a 31 31, 0, 0, 0, 0 -62" transform="rotate(90,1558,1062)"/><path d="M 1527 1217v 62h 31a 31 31, 0, 0, 0, 0 -62" transform="rotate(180,1558,1248)"/><rect x="1527" y="1341" width="62" height="62" transform="rotate(0,1558,1372)"/><rect x="1527" y="1589" width="62" height="62" transform="rotate(0,1558,1620)"/><path d="M 1527 1775v 62h 31a 31 31, 0, 0, 0, 0 -62" transform="rotate(0,1558,1806)"/><path d="M 1589 659v 62h 31a 31 31, 0, 0, 0, 0 -62" transform="rotate(-90,1620,690)"/><rect x="1589" y="721" width="62" height="62" transform="rotate(0,1620,752)"/><rect x="1589" y="783" width="62" height="62" transform="rotate(0,1620,814)"/><path d="M 1589 907v 62h 62a 62 62, 0, 0, 0, -62 -62" transform="rotate(-90,1620,938)"/><path d="M 1589 969v 62h 62a 62 62, 0, 0, 0, -62 -62" transform="rotate(90,1620,1000)"/><rect x="1589" y="1217" width="62" height="62" transform="rotate(0,1620,1248)"/><path d="M 1589 1341v 62h 62a 62 62, 0, 0, 0, -62 -62" transform="rotate(0,1620,1372)"/><rect x="1589" y="1403" width="62" height="62" transform="rotate(0,1620,1434)"/><rect x="1589" y="1465" width="62" height="62" transform="rotate(0,1620,1496)"/><rect x="1589" y="1527" width="62" height="62" transform="rotate(0,1620,1558)"/><rect x="1589" y="1589" width="62" height="62" transform="rotate(0,1620,1620)"/><rect x="1589" y="1651" width="62" height="62" transform="rotate(0,1620,1682)"/><path d="M 1589 1713v 62h 62a 62 62, 0, 0, 0, -62 -62" transform="rotate(180,1620,1744)"/><circle cx="1620" cy="1868" r="31" transform="rotate(0,1620,1868)"/><path d="M 1651 597v 62h 31a 31 31, 0, 0, 0, 0 -62" transform="rotate(180,1682,628)"/><path d="M 1651 783v 62h 62a 62 62, 0, 0, 0, -62 -62" transform="rotate(0,1682,814)"/><rect x="1651" y="845" width="62" height="62" transform="rotate(0,1682,876)"/><path d="M 1651 907v 62h 62a 62 62, 0, 0, 0, -62 -62" transform="rotate(90,1682,938)"/><path d="M 1651 1093v 62h 31a 31 31, 0, 0, 0, 0 -62" transform="rotate(180,1682,1124)"/><path d="M 1651 1217v 62h 62a 62 62, 0, 0, 0, -62 -62" transform="rotate(0,1682,1248)"/><path d="M 1651 1279v 62h 31a 31 31, 0, 0, 0, 0 -62" transform="rotate(90,1682,1310)"/><path d="M 1651 1589v 62h 62a 62 62, 0, 0, 0, -62 -62" transform="rotate(0,1682,1620)"/><rect x="1651" y="1651" width="62" height="62" transform="rotate(0,1682,1682)"/><rect x="1651" y="1713" width="62" height="62" transform="rotate(0,1682,1744)"/><path d="M 1651 1775v 62h 31a 31 31, 0, 0, 0, 0 -62" transform="rotate(90,1682,1806)"/><rect x="1713" y="597" width="62" height="62" transform="rotate(0,1744,628)"/><path d="M 1713 659v 62h 62a 62 62, 0, 0, 0, -62 -62" transform="rotate(180,1744,690)"/><path d="M 1713 845v 62h 31a 31 31, 0, 0, 0, 0 -62" transform="rotate(0,1744,876)"/><path d="M 1713 969v 62h 62a 62 62, 0, 0, 0, -62 -62" transform="rotate(-90,1744,1000)"/><rect x="1713" y="1031" width="62" height="62" transform="rotate(0,1744,1062)"/><rect x="1713" y="1093" width="62" height="62" transform="rotate(0,1744,1124)"/><path d="M 1713 1341v 62h 31a 31 31, 0, 0, 0, 0 -62" transform="rotate(180,1744,1372)"/><circle cx="1744" cy="1558" r="31" transform="rotate(0,1744,1558)"/><circle cx="1744" cy="1868" r="31" transform="rotate(0,1744,1868)"/><path d="M 1775 597v 62h 62a 62 62, 0, 0, 0, -62 -62" transform="rotate(0,1806,628)"/><rect x="1775" y="659" width="62" height="62" transform="rotate(0,1806,690)"/><rect x="1775" y="721" width="62" height="62" transform="rotate(0,1806,752)"/><path d="M 1775 783v 62h 31a 31 31, 0, 0, 0, 0 -62" transform="rotate(90,1806,814)"/><rect x="1775" y="969" width="62" height="62" transform="rotate(0,1806,1000)"/><path d="M 1775 1093v 62h 31a 31 31, 0, 0, 0, 0 -62" transform="rotate(0,1806,1124)"/><path d="M 1775 1279v 62h 31a 31 31, 0, 0, 0, 0 -62" transform="rotate(-90,1806,1310)"/><rect x="1775" y="1341" width="62" height="62" transform="rotate(0,1806,1372)"/><path d="M 1775 1589v 62h 31a 31 31, 0, 0, 0, 0 -62" transform="rotate(-90,1806,1620)"/><path d="M 1775 1651v 62h 62a 62 62, 0, 0, 0, -62 -62" transform="rotate(180,1806,1682)"/><path d="M 1775 1775v 62h 31a 31 31, 0, 0, 0, 0 -62" transform="rotate(180,1806,1806)"/><path d="M 1837 659v 62h 31a 31 31, 0, 0, 0, 0 -62" transform="rotate(0,1868,690)"/><path d="M 1837 845v 62h 31a 31 31, 0, 0, 0, 0 -62" transform="rotate(-90,1868,876)"/><rect x="1837" y="907" width="62" height="62" transform="rotate(0,1868,938)"/><rect x="1837" y="969" width="62" height="62" transform="rotate(0,1868,1000)"/><path d="M 1837 1031v 62h 31a 31 31, 0, 0, 0, 0 -62" transform="rotate(90,1868,1062)"/><circle cx="1868" cy="1248" r="31" transform="rotate(0,1868,1248)"/><path d="M 1837 1341v 62h 62a 62 62, 0, 0, 0, -62 -62" transform="rotate(0,1868,1372)"/><rect x="1837" y="1403" width="62" height="62" transform="rotate(0,1868,1434)"/><rect x="1837" y="1465" width="62" height="62" transform="rotate(0,1868,1496)"/><path d="M 1837 1527v 62h 31a 31 31, 0, 0, 0, 0 -62" transform="rotate(90,1868,1558)"/><path d="M 1837 1651v 62h 62a 62 62, 0, 0, 0, -62 -62" transform="rotate(0,1868,1682)"/><rect x="1837" y="1713" width="62" height="62" transform="rotate(0,1868,1744)"/><path d="M 1837 1775v 62h 62a 62 62, 0, 0, 0, -62 -62" transform="rotate(90,1868,1806)"/></clipPath><clipPath id="clip-path-corners-square-color-0-0"><path clip-rule="evenodd" d="M 101 256v 124a 155 155, 0, 0, 0, 155 155h 124a 155 155, 0, 0, 0, 155 -155v -124a 155 155, 0, 0, 0, -155 -155h -124a 155 155, 0, 0, 0, -155 155M 256 163h 124a 93 93, 0, 0, 1, 93 93v 124a 93 93, 0, 0, 1, -93 93h -124a 93 93, 0, 0, 1, -93 -93v -124a 93 93, 0, 0, 1, 93 -93" transform="rotate(0,318,318)"/></clipPath><clipPath id="clip-path-corners-dot-color-0-0"><circle cx="318" cy="318" r="93" transform="rotate(0,318,318)"/></clipPath><clipPath id="clip-path-corners-square-color-1-0"><path clip-rule="evenodd" d="M 1465 256v 124a 155 155, 0, 0, 0, 155 155h 124a 155 155, 0, 0, 0, 155 -155v -124a 155 155, 0, 0, 0, -155 -155h -124a 155 155, 0, 0, 0, -155 155M 1620 163h 124a 93 93, 0, 0, 1, 93 93v 124a 93 93, 0, 0, 1, -93 93h -124a 93 93, 0, 0, 1, -93 -93v -124a 93 93, 0, 0, 1, 93 -93" transform="rotate(90,1682,318)"/></clipPath><clipPath id="clip-path-corners-dot-color-1-0"><circle cx="1682" cy="318" r="93" transform="rotate(90,1682,318)"/></clipPath><clipPath id="clip-path-corners-square-color-0-1"><path clip-rule="evenodd" d="M 101 1620v 124a 155 155, 0, 0, 0, 155 155h 124a 155 155, 0, 0, 0, 155 -155v -124a 155 155, 0, 0, 0, -155 -155h -124a 155 155, 0, 0, 0, -155 155M 256 1527h 124a 93 93, 0, 0, 1, 93 93v 124a 93 93, 0, 0, 1, -93 93h -124a 93 93, 0, 0, 1, -93 -93v -124a 93 93, 0, 0, 1, 93 -93" transform="rotate(-90,318,1682)"/></clipPath><clipPath id="clip-path-corners-dot-color-0-1"><circle cx="318" cy="1682" r="93" transform="rotate(-90,318,1682)"/></clipPath></defs><rect x="101" y="101" height="1798" width="1798" clip-path="url('#clip-path-dot-color')" fill="#ffb904"/><rect x="101" y="101" height="434" width="434" clip-path="url('#clip-path-corners-square-color-0-0')" fill="#ffb904"/><rect x="225" y="225" height="186" width="186" clip-path="url('#clip-path-corners-dot-color-0-0')" fill="#ffb904"/><rect x="1465" y="101" height="434" width="434" clip-path="url('#clip-path-corners-square-color-1-0')" fill="#ffb904"/><rect x="1589" y="225" height="186" width="186" clip-path="url('#clip-path-corners-dot-color-1-0')" fill="#ffb904"/><rect x="101" y="1465" height="434" width="434" clip-path="url('#clip-path-corners-square-color-0-1')" fill="#ffb904"/><rect x="225" y="1589" height="186" width="186" clip-path="url('#clip-path-corners-dot-color-0-1')" fill="#ffb904"/></svg>